%TF.GenerationSoftware,KiCad,Pcbnew,10.0.3*%
%TF.CreationDate,2026-06-26T20:39:11-04:00*%
%TF.ProjectId,electroPneumaticMini,656c6563-7472-46f5-906e-65756d617469,rev?*%
%TF.SameCoordinates,Original*%
%TF.FileFunction,Copper,L2,Bot*%
%TF.FilePolarity,Positive*%
%FSLAX46Y46*%
G04 Gerber Fmt 4.6, Leading zero omitted, Abs format (unit mm)*
G04 Created by KiCad (PCBNEW 10.0.3) date 2026-06-26 20:39:11*
%MOMM*%
%LPD*%
G01*
G04 APERTURE LIST*
G04 Aperture macros list*
%AMRoundRect*
0 Rectangle with rounded corners*
0 $1 Rounding radius*
0 $2 $3 $4 $5 $6 $7 $8 $9 X,Y pos of 4 corners*
0 Add a 4 corners polygon primitive as box body*
4,1,4,$2,$3,$4,$5,$6,$7,$8,$9,$2,$3,0*
0 Add four circle primitives for the rounded corners*
1,1,$1+$1,$2,$3*
1,1,$1+$1,$4,$5*
1,1,$1+$1,$6,$7*
1,1,$1+$1,$8,$9*
0 Add four rect primitives between the rounded corners*
20,1,$1+$1,$2,$3,$4,$5,0*
20,1,$1+$1,$4,$5,$6,$7,0*
20,1,$1+$1,$6,$7,$8,$9,0*
20,1,$1+$1,$8,$9,$2,$3,0*%
G04 Aperture macros list end*
%TA.AperFunction,ComponentPad*%
%ADD10R,0.700000X0.700000*%
%TD*%
%TA.AperFunction,ComponentPad*%
%ADD11C,0.800000*%
%TD*%
%TA.AperFunction,ComponentPad*%
%ADD12C,1.400000*%
%TD*%
%TA.AperFunction,ComponentPad*%
%ADD13R,1.905000X2.000000*%
%TD*%
%TA.AperFunction,ComponentPad*%
%ADD14O,1.905000X2.000000*%
%TD*%
%TA.AperFunction,ComponentPad*%
%ADD15RoundRect,0.249999X-0.850001X-0.850001X0.850001X-0.850001X0.850001X0.850001X-0.850001X0.850001X0*%
%TD*%
%TA.AperFunction,ComponentPad*%
%ADD16C,2.200000*%
%TD*%
%TA.AperFunction,ComponentPad*%
%ADD17RoundRect,0.249999X0.850001X-0.850001X0.850001X0.850001X-0.850001X0.850001X-0.850001X-0.850001X0*%
%TD*%
%TA.AperFunction,ComponentPad*%
%ADD18R,1.700000X1.700000*%
%TD*%
%TA.AperFunction,ComponentPad*%
%ADD19C,1.700000*%
%TD*%
%TA.AperFunction,ComponentPad*%
%ADD20R,1.600000X1.600000*%
%TD*%
%TA.AperFunction,ComponentPad*%
%ADD21O,1.600000X1.600000*%
%TD*%
G04 APERTURE END LIST*
D10*
%TO.P,J1,1,Pin_1_1*%
%TO.N,Net-(D4-K)*%
X50500000Y-117500000D03*
D11*
%TO.P,J1,2,Pin_2_2*%
%TO.N,Net-(BT1--)*%
X50500000Y-116500000D03*
%TD*%
D12*
%TO.P,R3,1*%
%TO.N,Net-(Q1-B)*%
X124190000Y-109500000D03*
%TO.P,R3,2*%
%TO.N,Net-(A2-D10)*%
X124190000Y-117120000D03*
%TD*%
D13*
%TO.P,Q1,1,B_1*%
%TO.N,Net-(Q1-B)*%
X138420000Y-84000000D03*
D14*
%TO.P,Q1,2,C_2*%
%TO.N,Net-(D3-A)*%
X140960000Y-84000000D03*
%TO.P,Q1,3,E_3*%
%TO.N,Net-(Q1-E)*%
X143500000Y-84000000D03*
%TD*%
D15*
%TO.P,D3,1,K_1*%
%TO.N,Net-(D3-K)*%
X131920000Y-101000000D03*
D16*
%TO.P,D3,2,A_2*%
%TO.N,Net-(D3-A)*%
X142080000Y-101000000D03*
%TD*%
%TO.P,D4,2,A_2*%
%TO.N,Net-(D4-A)*%
X43500000Y-93420000D03*
D17*
%TO.P,D4,1,K_1*%
%TO.N,Net-(D4-K)*%
X43500000Y-103580000D03*
%TD*%
D12*
%TO.P,R4,2*%
%TO.N,Net-(A2-D4)*%
X67310000Y-77500000D03*
%TO.P,R4,1*%
%TO.N,Net-(Q4-B)*%
X59690000Y-77500000D03*
%TD*%
D13*
%TO.P,Q4,1,B_1*%
%TO.N,Net-(Q4-B)*%
X42500000Y-80000000D03*
D14*
%TO.P,Q4,2,C_2*%
%TO.N,Net-(D4-A)*%
X45040000Y-80000000D03*
%TO.P,Q4,3,E_3*%
%TO.N,Net-(BT1--)*%
X47580000Y-80000000D03*
%TD*%
D18*
%TO.P,u5,1,VCC_1*%
%TO.N,Net-(D3-K)*%
X135500000Y-112500000D03*
D19*
%TO.P,u5,2,GND_2*%
%TO.N,Net-(Q1-E)*%
X135500000Y-115040000D03*
%TD*%
D20*
%TO.P,A2,1,NC_1*%
%TO.N,unconnected-(A2-NC-Pad1)*%
X68870000Y-120675000D03*
D21*
%TO.P,A2,2,IOREF_2*%
%TO.N,unconnected-(A2-IOREF-Pad2)*%
X68870000Y-118135000D03*
%TO.P,A2,3,~{RESET}_3*%
%TO.N,unconnected-(A2-~{RESET}-Pad3)*%
X68870000Y-115595000D03*
%TO.P,A2,4,3V3_4*%
%TO.N,unconnected-(A2-3V3-Pad4)*%
X68870000Y-113055000D03*
%TO.P,A2,5,+5V_5*%
%TO.N,unconnected-(A2-+5V-Pad5)*%
X68870000Y-110515000D03*
%TO.P,A2,6,GND_6*%
%TO.N,unconnected-(A2-GND-Pad6)*%
X68870000Y-107975000D03*
%TO.P,A2,7,GND_7*%
%TO.N,Net-(BT1--)*%
X68870000Y-105435000D03*
%TO.P,A2,8,VIN_8*%
%TO.N,+6V*%
X68870000Y-102895000D03*
%TO.P,A2,9,A0_9*%
%TO.N,unconnected-(A2-A0-Pad9)*%
X68870000Y-97815000D03*
%TO.P,A2,10,A1_10*%
%TO.N,unconnected-(A2-A1-Pad10)*%
X68870000Y-95275000D03*
%TO.P,A2,11,A2_11*%
%TO.N,unconnected-(A2-A2-Pad11)*%
X68870000Y-92735000D03*
%TO.P,A2,12,A3_12*%
%TO.N,unconnected-(A2-A3-Pad12)*%
X68870000Y-90195000D03*
%TO.P,A2,13,SDA/A4_13*%
%TO.N,unconnected-(A2-SDA{slash}A4-Pad13)*%
X68870000Y-87655000D03*
%TO.P,A2,14,SCL/A5_14*%
%TO.N,unconnected-(A2-SCL{slash}A5-Pad14)*%
X68870000Y-85115000D03*
%TO.P,A2,15,D0/RX_15*%
%TO.N,unconnected-(A2-D0{slash}RX-Pad15)*%
X117130000Y-85115000D03*
%TO.P,A2,16,D1/TX_16*%
%TO.N,unconnected-(A2-D1{slash}TX-Pad16)*%
X117130000Y-87655000D03*
%TO.P,A2,17,D2_17*%
%TO.N,unconnected-(A2-D2-Pad17)*%
X117130000Y-90195000D03*
%TO.P,A2,18,D3_18*%
%TO.N,unconnected-(A2-D3-Pad18)*%
X117130000Y-92735000D03*
%TO.P,A2,19,D4_19*%
%TO.N,Net-(A2-D4)*%
X117130000Y-95275000D03*
%TO.P,A2,20,D5_20*%
%TO.N,unconnected-(A2-D5-Pad20)*%
X117130000Y-97815000D03*
%TO.P,A2,21,D6_21*%
%TO.N,unconnected-(A2-D6-Pad21)*%
X117130000Y-100355000D03*
%TO.P,A2,22,D7_22*%
%TO.N,unconnected-(A2-D7-Pad22)*%
X117130000Y-102895000D03*
%TO.P,A2,23,D8_23*%
%TO.N,unconnected-(A2-D8-Pad23)*%
X117130000Y-106955000D03*
%TO.P,A2,24,D9_24*%
%TO.N,unconnected-(A2-D9-Pad24)*%
X117130000Y-109495000D03*
%TO.P,A2,25,D10_25*%
%TO.N,Net-(A2-D10)*%
X117130000Y-112035000D03*
%TO.P,A2,26,D11_26*%
%TO.N,unconnected-(A2-D11-Pad26)*%
X117130000Y-114575000D03*
%TO.P,A2,27,D12_27*%
%TO.N,unconnected-(A2-D12-Pad27)*%
X117130000Y-117115000D03*
%TO.P,A2,28,D13_28*%
%TO.N,unconnected-(A2-D13-Pad28)*%
X117130000Y-119655000D03*
%TO.P,A2,29,GND_29*%
%TO.N,Net-(Q1-E)*%
X117130000Y-122195000D03*
%TO.P,A2,30,AREF_30*%
%TO.N,unconnected-(A2-AREF-Pad30)*%
X117130000Y-124735000D03*
%TD*%
D19*
%TO.P,BT1,2,-_2*%
%TO.N,Net-(BT1--)*%
X63000000Y-107040000D03*
D18*
%TO.P,BT1,1,+_1*%
%TO.N,+6V*%
X63000000Y-104500000D03*
%TD*%
M02*
