M48
; DRILL file KiCad 10.0.3 date 2026-06-26T20:39:16
; FORMAT={-:-/ absolute / metric / decimal}
; #@! TF.CreationDate,2026-06-26T20:39:16-04:00
; #@! TF.GenerationSoftware,Kicad,Pcbnew,10.0.3
; #@! TF.FileFunction,Plated,1,2,PTH
FMAT,2
METRIC
; #@! TA.AperFunction,Plated,PTH,ComponentDrill
T1C0.500
; #@! TA.AperFunction,Plated,PTH,ComponentDrill
T2C0.700
; #@! TA.AperFunction,Plated,PTH,ComponentDrill
T3C1.000
; #@! TA.AperFunction,Plated,PTH,ComponentDrill
T4C1.100
%
G90
G05
T1
X50.5Y-116.5
X50.5Y-117.5
T2
X59.69Y-77.5
X67.31Y-77.5
X124.19Y-109.5
X124.19Y-117.12
T3
X63.0Y-104.5
X63.0Y-107.04
X68.87Y-85.115
X68.87Y-87.655
X68.87Y-90.195
X68.87Y-92.735
X68.87Y-95.275
X68.87Y-97.815
X68.87Y-102.895
X68.87Y-105.435
X68.87Y-107.975
X68.87Y-110.515
X68.87Y-113.055
X68.87Y-115.595
X68.87Y-118.135
X68.87Y-120.675
X117.13Y-85.115
X117.13Y-87.655
X117.13Y-90.195
X117.13Y-92.735
X117.13Y-95.275
X117.13Y-97.815
X117.13Y-100.355
X117.13Y-102.895
X117.13Y-106.955
X117.13Y-109.495
X117.13Y-112.035
X117.13Y-114.575
X117.13Y-117.115
X117.13Y-119.655
X117.13Y-122.195
X117.13Y-124.735
X135.5Y-112.5
X135.5Y-115.04
T4
X42.5Y-80.0
X43.5Y-93.42
X43.5Y-103.58
X45.04Y-80.0
X47.58Y-80.0
X131.92Y-101.0
X138.42Y-84.0
X140.96Y-84.0
X142.08Y-101.0
X143.5Y-84.0
M30
